<svg width="153" height="28" viewBox="0 0 153 28" fill="none" xmlns="http://www.w3.org/2000/svg">
<path d="M27.5811 17.3867C25.7111 24.8867 18.1139 29.4511 10.6121 27.5809C3.11341 25.7111 -1.45151 18.1142 0.419327 10.6148C2.28852 3.11387 9.88573 -1.45087 17.3852 0.418928C24.8865 2.28873 29.4511 9.88639 27.5809 17.3868L27.581 17.3867H27.5811Z" fill="#F7931A"/>
<path d="M20.1742 12.0054C20.4529 10.1423 19.0343 9.14081 17.0945 8.47272L17.7238 5.949L16.1873 5.5662L15.5748 8.02348C15.1708 7.92275 14.756 7.82783 14.3438 7.73374L14.9608 5.26024L13.4253 4.87744L12.7957 7.40035C12.4614 7.32425 12.1331 7.24905 11.8146 7.1698L11.8164 7.16186L9.6976 6.63283L9.28889 8.27366C9.28889 8.27366 10.4288 8.53493 10.4048 8.55101C11.0269 8.70628 11.1395 9.11809 11.1208 9.44451L10.404 12.3196C10.4468 12.3305 10.5024 12.3462 10.5637 12.3709C10.5124 12.3582 10.4579 12.3443 10.4013 12.3307L9.39654 16.3583C9.3205 16.5473 9.12751 16.831 8.69251 16.7233C8.70791 16.7456 7.5758 16.4446 7.5758 16.4446L6.81299 18.2032L8.81242 18.7015C9.18438 18.7948 9.54888 18.8924 9.90784 18.9842L9.27205 21.5368L10.8067 21.9196L11.4363 19.3941C11.8556 19.5079 12.2625 19.6128 12.6608 19.7118L12.0333 22.2255L13.5698 22.6083L14.2055 20.0604C16.8255 20.5562 18.7955 20.3563 19.6247 17.9868C20.2928 16.0791 19.5914 14.9787 18.2131 14.2611C19.217 14.0296 19.9732 13.3694 20.1748 12.0056L20.1743 12.0053L20.1742 12.0054ZM16.6638 16.9273C16.189 18.8351 12.9766 17.8038 11.9351 17.5452L12.7788 14.1634C13.8203 14.4233 17.1601 14.9378 16.6639 16.9273H16.6638ZM17.139 11.9777C16.7058 13.713 14.0322 12.8314 13.1648 12.6152L13.9298 9.54811C14.7971 9.76429 17.5902 10.1678 17.1391 11.9777H17.139Z" fill="white"/>
<path d="M107.661 12.5449V24.1797H105.131V9.38672H107.524L107.661 12.5449ZM107.059 16.2227L106.006 16.1816C106.015 15.1699 106.166 14.2357 106.458 13.3789C106.749 12.513 107.159 11.7611 107.688 11.123C108.217 10.485 108.846 9.99284 109.575 9.64648C110.313 9.29102 111.129 9.11328 112.022 9.11328C112.751 9.11328 113.407 9.21354 113.991 9.41406C114.574 9.60547 115.071 9.91536 115.481 10.3438C115.9 10.7721 116.219 11.3281 116.438 12.0117C116.657 12.6862 116.766 13.5111 116.766 14.4863V24.1797H114.223V14.459C114.223 13.6842 114.109 13.0645 113.881 12.5996C113.653 12.1257 113.321 11.7839 112.883 11.5742C112.446 11.3555 111.908 11.2461 111.27 11.2461C110.641 11.2461 110.067 11.3783 109.547 11.6426C109.037 11.9069 108.595 12.2715 108.221 12.7363C107.857 13.2012 107.569 13.7344 107.36 14.3359C107.159 14.9284 107.059 15.5573 107.059 16.2227Z" fill="white"/>
<path d="M101.071 9.38672V24.1797H98.5278V9.38672H101.071ZM98.3364 5.46289C98.3364 5.05273 98.4595 4.70638 98.7056 4.42383C98.9608 4.14128 99.3345 4 99.8267 4C100.31 4 100.679 4.14128 100.934 4.42383C101.198 4.70638 101.331 5.05273 101.331 5.46289C101.331 5.85482 101.198 6.19206 100.934 6.47461C100.679 6.74805 100.31 6.88477 99.8267 6.88477C99.3345 6.88477 98.9608 6.74805 98.7056 6.47461C98.4595 6.19206 98.3364 5.85482 98.3364 5.46289Z" fill="white"/>
<path d="M81.6841 16.9473V16.6328C81.6841 15.5664 81.839 14.5775 82.1489 13.666C82.4588 12.7454 82.9054 11.9479 83.4888 11.2734C84.0721 10.5898 84.7785 10.0612 85.6079 9.6875C86.4373 9.30469 87.367 9.11328 88.397 9.11328C89.436 9.11328 90.3703 9.30469 91.1997 9.6875C92.0382 10.0612 92.7492 10.5898 93.3325 11.2734C93.925 11.9479 94.3761 12.7454 94.686 13.666C94.9959 14.5775 95.1509 15.5664 95.1509 16.6328V16.9473C95.1509 18.0137 94.9959 19.0026 94.686 19.9141C94.3761 20.8255 93.925 21.623 93.3325 22.3066C92.7492 22.9811 92.0428 23.5098 91.2134 23.8926C90.3931 24.2663 89.4634 24.4531 88.4243 24.4531C87.3853 24.4531 86.451 24.2663 85.6216 23.8926C84.7922 23.5098 84.0812 22.9811 83.4888 22.3066C82.9054 21.623 82.4588 20.8255 82.1489 19.9141C81.839 19.0026 81.6841 18.0137 81.6841 16.9473ZM84.2134 16.6328V16.9473C84.2134 17.6855 84.3 18.3828 84.4731 19.0391C84.6463 19.6862 84.9061 20.2604 85.2524 20.7617C85.6079 21.263 86.05 21.6595 86.5786 21.9512C87.1073 22.2337 87.7225 22.375 88.4243 22.375C89.117 22.375 89.7231 22.2337 90.2427 21.9512C90.7713 21.6595 91.2088 21.263 91.5552 20.7617C91.9015 20.2604 92.1613 19.6862 92.3345 19.0391C92.5168 18.3828 92.6079 17.6855 92.6079 16.9473V16.6328C92.6079 15.9036 92.5168 15.2155 92.3345 14.5684C92.1613 13.9121 91.897 13.3333 91.5415 12.832C91.1952 12.3216 90.7577 11.9206 90.229 11.6289C89.7095 11.3372 89.0988 11.1914 88.397 11.1914C87.7043 11.1914 87.0936 11.3372 86.5649 11.6289C86.0454 11.9206 85.6079 12.3216 85.2524 12.832C84.9061 13.3333 84.6463 13.9121 84.4731 14.5684C84.3 15.2155 84.2134 15.9036 84.2134 16.6328Z" fill="white"/>
<path d="M73.6177 22.375C74.2192 22.375 74.7752 22.252 75.2856 22.0059C75.7961 21.7598 76.2153 21.4225 76.5435 20.9941C76.8716 20.5566 77.0584 20.0599 77.104 19.5039H79.5103C79.4647 20.3789 79.1685 21.1947 78.6216 21.9512C78.0838 22.6986 77.3774 23.3047 76.5024 23.7695C75.6274 24.2253 74.6659 24.4531 73.6177 24.4531C72.5057 24.4531 71.535 24.2572 70.7056 23.8652C69.8853 23.4733 69.2017 22.9355 68.6548 22.252C68.117 21.5684 67.7114 20.7845 67.438 19.9004C67.1737 19.0072 67.0415 18.0638 67.0415 17.0703V16.4961C67.0415 15.5026 67.1737 14.5638 67.438 13.6797C67.7114 12.7865 68.117 11.998 68.6548 11.3145C69.2017 10.6309 69.8853 10.0931 70.7056 9.70117C71.535 9.30924 72.5057 9.11328 73.6177 9.11328C74.7752 9.11328 75.7869 9.35026 76.6528 9.82422C77.5187 10.2891 78.1978 10.9271 78.6899 11.7383C79.1912 12.5404 79.4647 13.4518 79.5103 14.4727H77.104C77.0584 13.862 76.8853 13.3105 76.5845 12.8184C76.2928 12.3262 75.8918 11.9342 75.3813 11.6426C74.88 11.3418 74.2922 11.1914 73.6177 11.1914C72.8429 11.1914 72.1912 11.3464 71.6626 11.6562C71.1431 11.957 70.7284 12.3672 70.4185 12.8867C70.1177 13.3971 69.8989 13.9668 69.7622 14.5957C69.6346 15.2155 69.5708 15.849 69.5708 16.4961V17.0703C69.5708 17.7174 69.6346 18.3555 69.7622 18.9844C69.8898 19.6133 70.104 20.1829 70.4048 20.6934C70.7147 21.2038 71.1294 21.6139 71.6489 21.9238C72.1776 22.2246 72.8338 22.375 73.6177 22.375Z" fill="white"/>
<path d="M64.731 9.38672V11.3281H56.7329V9.38672H64.731ZM59.4399 5.79102H61.9692V20.5156C61.9692 21.0169 62.0467 21.3952 62.2017 21.6504C62.3566 21.9056 62.5571 22.0742 62.8032 22.1562C63.0493 22.2383 63.3136 22.2793 63.5962 22.2793C63.8058 22.2793 64.0246 22.2611 64.2524 22.2246C64.4894 22.179 64.6672 22.1426 64.7856 22.1152L64.7993 24.1797C64.5988 24.2435 64.3345 24.3027 64.0063 24.3574C63.6873 24.4212 63.3 24.4531 62.8442 24.4531C62.2244 24.4531 61.6548 24.3301 61.1353 24.084C60.6157 23.8379 60.201 23.4277 59.8911 22.8535C59.5903 22.2702 59.4399 21.4863 59.4399 20.502V5.79102Z" fill="white"/>
<path d="M54.4771 9.38672V24.1797H51.9341V9.38672H54.4771ZM51.7427 5.46289C51.7427 5.05273 51.8657 4.70638 52.1118 4.42383C52.367 4.14128 52.7407 4 53.2329 4C53.716 4 54.0851 4.14128 54.3403 4.42383C54.6047 4.70638 54.7368 5.05273 54.7368 5.46289C54.7368 5.85482 54.6047 6.19206 54.3403 6.47461C54.0851 6.74805 53.716 6.88477 53.2329 6.88477C52.7407 6.88477 52.367 6.74805 52.1118 6.47461C51.8657 6.19206 51.7427 5.85482 51.7427 5.46289Z" fill="white"/>
<path d="M41.7622 14.8691H36.7173L36.6899 12.75H41.27C42.0265 12.75 42.6873 12.6224 43.2524 12.3672C43.8175 12.112 44.255 11.7474 44.5649 11.2734C44.884 10.7904 45.0435 10.2161 45.0435 9.55078C45.0435 8.82161 44.9022 8.22917 44.6196 7.77344C44.3462 7.30859 43.9224 6.97135 43.3481 6.76172C42.783 6.54297 42.063 6.43359 41.188 6.43359H37.3052V24.1797H34.6665V4.27344H41.188C42.2088 4.27344 43.1203 4.37826 43.9224 4.58789C44.7244 4.78841 45.4035 5.10742 45.9595 5.54492C46.5246 5.97331 46.953 6.52018 47.2446 7.18555C47.5363 7.85091 47.6821 8.64844 47.6821 9.57812C47.6821 10.3984 47.4725 11.1413 47.0532 11.8066C46.634 12.4629 46.0506 13.0007 45.3032 13.4199C44.5649 13.8392 43.6991 14.1081 42.7056 14.2266L41.7622 14.8691ZM41.6392 24.1797H35.6782L37.1685 22.0332H41.6392C42.4777 22.0332 43.1886 21.8874 43.772 21.5957C44.3644 21.304 44.8156 20.8939 45.1255 20.3652C45.4354 19.8275 45.5903 19.194 45.5903 18.4648C45.5903 17.7266 45.4582 17.0885 45.1938 16.5508C44.9295 16.013 44.5148 15.5983 43.9497 15.3066C43.3846 15.015 42.6554 14.8691 41.7622 14.8691H38.0024L38.0298 12.75H43.1704L43.731 13.5156C44.688 13.5977 45.4992 13.8711 46.1646 14.3359C46.8299 14.7917 47.3358 15.375 47.6821 16.0859C48.0376 16.7969 48.2153 17.5807 48.2153 18.4375C48.2153 19.6771 47.9419 20.7253 47.395 21.582C46.8573 22.4297 46.0962 23.0768 45.1118 23.5234C44.1274 23.9609 42.9699 24.1797 41.6392 24.1797Z" fill="white"/>
<path d="M152.857 17.321H151.624C151.551 16.9664 151.424 16.6548 151.241 16.3864C151.063 16.1179 150.844 15.8925 150.585 15.7102C150.33 15.5246 150.047 15.3854 149.735 15.2926C149.424 15.1998 149.099 15.1534 148.761 15.1534C148.144 15.1534 147.586 15.3092 147.085 15.6207C146.588 15.9323 146.192 16.3913 145.897 16.9979C145.605 17.6044 145.46 18.3485 145.46 19.2301C145.46 20.1117 145.605 20.8558 145.897 21.4624C146.192 22.0689 146.588 22.5279 147.085 22.8395C147.586 23.151 148.144 23.3068 148.761 23.3068C149.099 23.3068 149.424 23.2604 149.735 23.1676C150.047 23.0748 150.33 22.9373 150.585 22.755C150.844 22.5694 151.063 22.3423 151.241 22.0739C151.424 21.8021 151.551 21.4905 151.624 21.1392H152.857C152.764 21.6596 152.595 22.1252 152.35 22.5362C152.105 22.9472 151.8 23.2969 151.435 23.5852C151.071 23.8703 150.661 24.0874 150.207 24.2365C149.757 24.3857 149.274 24.4602 148.761 24.4602C147.892 24.4602 147.12 24.2481 146.444 23.8239C145.768 23.3996 145.236 22.7964 144.848 22.0142C144.46 21.232 144.266 20.304 144.266 19.2301C144.266 18.1563 144.46 17.2282 144.848 16.446C145.236 15.6638 145.768 15.0606 146.444 14.6364C147.12 14.2121 147.892 14 148.761 14C149.274 14 149.757 14.0746 150.207 14.2237C150.661 14.3729 151.071 14.5916 151.435 14.88C151.8 15.165 152.105 15.513 152.35 15.924C152.595 16.3317 152.764 16.7973 152.857 17.321Z" fill="#B9B9B9"/>
<path d="M135.549 15.2329V14.1392H143.185V15.2329H139.983V24.321H138.75V15.2329H135.549Z" fill="#B9B9B9"/>
<path d="M127 24.321V14.1392H130.56C131.269 14.1392 131.854 14.2618 132.315 14.5071C132.775 14.749 133.118 15.0755 133.344 15.4865C133.569 15.8941 133.682 16.3465 133.682 16.8437C133.682 17.2812 133.604 17.6425 133.448 17.9275C133.296 18.2126 133.094 18.4379 132.842 18.6036C132.593 18.7694 132.323 18.892 132.031 18.9715V19.071C132.343 19.0909 132.656 19.2002 132.971 19.3991C133.286 19.598 133.549 19.883 133.761 20.2542C133.973 20.6254 134.08 21.0795 134.08 21.6164C134.08 22.1268 133.964 22.5859 133.732 22.9936C133.5 23.4012 133.133 23.7244 132.633 23.963C132.132 24.2017 131.481 24.321 130.679 24.321H127ZM128.233 23.2272H130.679C131.484 23.2272 132.056 23.0715 132.394 22.7599C132.736 22.445 132.906 22.0639 132.906 21.6164C132.906 21.2717 132.818 20.9536 132.643 20.6619C132.467 20.3669 132.217 20.1316 131.892 19.9559C131.567 19.7769 131.183 19.6875 130.739 19.6875H128.233V23.2272ZM128.233 18.6136H130.52C130.891 18.6136 131.226 18.5407 131.524 18.3948C131.826 18.249 132.064 18.0435 132.24 17.7784C132.419 17.5132 132.509 17.2017 132.509 16.8437C132.509 16.3963 132.353 16.0168 132.041 15.7052C131.73 15.3903 131.236 15.2329 130.56 15.2329H128.233V18.6136Z" fill="#B9B9B9"/>
</svg>
