<svg width="175" height="28" viewBox="0 0 175 28" fill="none" xmlns="http://www.w3.org/2000/svg">
<path d="M8.5941 0L8.40625 0.638087V19.1523L8.5941 19.3397L17.188 14.2597L8.5941 0Z" fill="#343434"/>
<path d="M8.59412 0L0 14.2597L8.59412 19.3397V10.3534V0Z" fill="#8C8C8C"/>
<path d="M8.59391 20.9667L8.48804 21.0958V27.6908L8.59391 27.9999L17.1931 15.8894L8.59391 20.9667Z" fill="#3C3C3B"/>
<path d="M8.59412 27.9999V20.9667L0 15.8894L8.59412 27.9999Z" fill="#8C8C8C"/>
<path d="M8.59424 19.3395L17.1881 14.2596L8.59424 10.3533V19.3395Z" fill="#141414"/>
<path d="M0 14.2596L8.59412 19.3395V10.3533L0 14.2596Z" fill="#393939"/>
<path d="M120.988 13.1465V25H118.445V10.207H120.852L120.988 13.1465ZM120.469 17.043L119.293 17.002C119.302 15.9902 119.434 15.056 119.689 14.1992C119.945 13.3333 120.323 12.5814 120.824 11.9434C121.326 11.3053 121.95 10.8132 122.697 10.4668C123.445 10.1113 124.311 9.93359 125.295 9.93359C125.988 9.93359 126.626 10.0339 127.209 10.2344C127.792 10.4258 128.298 10.7311 128.727 11.1504C129.155 11.5697 129.488 12.1074 129.725 12.7637C129.962 13.4199 130.08 14.2129 130.08 15.1426V25H127.551V15.2656C127.551 14.4909 127.419 13.8711 127.154 13.4062C126.899 12.9414 126.535 12.6042 126.061 12.3945C125.587 12.1758 125.031 12.0664 124.393 12.0664C123.645 12.0664 123.021 12.1986 122.52 12.4629C122.018 12.7272 121.617 13.0918 121.316 13.5566C121.016 14.0215 120.797 14.5547 120.66 15.1562C120.533 15.7487 120.469 16.3776 120.469 17.043ZM130.053 15.6484L128.357 16.168C128.367 15.3568 128.499 14.5775 128.754 13.8301C129.018 13.0827 129.396 12.4173 129.889 11.834C130.39 11.2507 131.005 10.7904 131.734 10.4531C132.464 10.1068 133.298 9.93359 134.236 9.93359C135.029 9.93359 135.731 10.0384 136.342 10.248C136.962 10.4577 137.481 10.7812 137.9 11.2188C138.329 11.6471 138.652 12.1986 138.871 12.873C139.09 13.5475 139.199 14.3496 139.199 15.2793V25H136.656V15.252C136.656 14.4225 136.524 13.7799 136.26 13.3242C136.005 12.8594 135.64 12.5358 135.166 12.3535C134.701 12.1621 134.145 12.0664 133.498 12.0664C132.942 12.0664 132.45 12.1621 132.021 12.3535C131.593 12.5449 131.233 12.8092 130.941 13.1465C130.65 13.4746 130.426 13.8529 130.271 14.2812C130.126 14.7096 130.053 15.1654 130.053 15.6484Z" fill="white"/>
<path d="M112.074 21.582V10.207H114.617V25H112.197L112.074 21.582ZM112.553 18.4648L113.605 18.4375C113.605 19.4219 113.501 20.3333 113.291 21.1719C113.09 22.0013 112.762 22.7214 112.307 23.332C111.851 23.9427 111.254 24.4212 110.516 24.7676C109.777 25.1048 108.88 25.2734 107.822 25.2734C107.102 25.2734 106.441 25.1686 105.84 24.959C105.247 24.7493 104.737 24.4258 104.309 23.9883C103.88 23.5508 103.548 22.9811 103.311 22.2793C103.083 21.5775 102.969 20.7344 102.969 19.75V10.207H105.498V19.7773C105.498 20.4427 105.571 20.9941 105.717 21.4316C105.872 21.86 106.077 22.2018 106.332 22.457C106.596 22.7031 106.888 22.8763 107.207 22.9766C107.535 23.0768 107.872 23.127 108.219 23.127C109.294 23.127 110.146 22.9219 110.775 22.5117C111.404 22.0924 111.855 21.5319 112.129 20.8301C112.411 20.1191 112.553 19.3307 112.553 18.4648Z" fill="white"/>
<path d="M94.3145 25.2734C93.2845 25.2734 92.3503 25.1003 91.5117 24.7539C90.6823 24.3984 89.9668 23.9017 89.3652 23.2637C88.7728 22.6257 88.3171 21.8691 87.998 20.9941C87.679 20.1191 87.5195 19.1621 87.5195 18.123V17.5488C87.5195 16.3457 87.6973 15.2747 88.0527 14.3359C88.4082 13.388 88.8913 12.5859 89.502 11.9297C90.1126 11.2734 90.8053 10.7767 91.5801 10.4395C92.3548 10.1022 93.1569 9.93359 93.9863 9.93359C95.0436 9.93359 95.9551 10.1159 96.7207 10.4805C97.4954 10.8451 98.1289 11.3555 98.6211 12.0117C99.1133 12.6589 99.4779 13.4245 99.7148 14.3086C99.9518 15.1836 100.07 16.1406 100.07 17.1797V18.3145H89.0234V16.25H97.541V16.0586C97.5046 15.4023 97.3678 14.7643 97.1309 14.1445C96.903 13.5247 96.5384 13.0143 96.0371 12.6133C95.5358 12.2122 94.8522 12.0117 93.9863 12.0117C93.4121 12.0117 92.8835 12.1348 92.4004 12.3809C91.9173 12.6178 91.5026 12.9733 91.1562 13.4473C90.8099 13.9212 90.541 14.5 90.3496 15.1836C90.1582 15.8672 90.0625 16.6556 90.0625 17.5488V18.123C90.0625 18.8249 90.1582 19.4857 90.3496 20.1055C90.5501 20.7161 90.8372 21.2539 91.2109 21.7188C91.5938 22.1836 92.054 22.5482 92.5918 22.8125C93.1387 23.0768 93.7585 23.209 94.4512 23.209C95.3444 23.209 96.1009 23.0267 96.7207 22.6621C97.3405 22.2975 97.8828 21.8099 98.3477 21.1992L99.8789 22.416C99.5599 22.8991 99.1543 23.3594 98.6621 23.7969C98.1699 24.2344 97.5638 24.5898 96.8438 24.8633C96.1328 25.1367 95.2897 25.2734 94.3145 25.2734Z" fill="white"/>
<path d="M81.4902 12.5312V25H78.9609V10.207H81.4219L81.4902 12.5312ZM86.1113 10.125L86.0977 12.4766C85.888 12.431 85.6875 12.4036 85.4961 12.3945C85.3138 12.3763 85.1042 12.3672 84.8672 12.3672C84.2839 12.3672 83.7689 12.4583 83.3223 12.6406C82.8757 12.8229 82.4974 13.0781 82.1875 13.4062C81.8776 13.7344 81.6315 14.1263 81.4492 14.582C81.276 15.0286 81.1621 15.5208 81.1074 16.0586L80.3965 16.4688C80.3965 15.5755 80.4831 14.737 80.6562 13.9531C80.8385 13.1693 81.1165 12.4766 81.4902 11.875C81.8639 11.2643 82.3379 10.7904 82.9121 10.4531C83.4954 10.1068 84.1882 9.93359 84.9902 9.93359C85.1725 9.93359 85.3822 9.95638 85.6191 10.002C85.8561 10.0384 86.0202 10.0794 86.1113 10.125Z" fill="white"/>
<path d="M70.252 25.2734C69.222 25.2734 68.2878 25.1003 67.4492 24.7539C66.6198 24.3984 65.9043 23.9017 65.3027 23.2637C64.7103 22.6257 64.2546 21.8691 63.9355 20.9941C63.6165 20.1191 63.457 19.1621 63.457 18.123V17.5488C63.457 16.3457 63.6348 15.2747 63.9902 14.3359C64.3457 13.388 64.8288 12.5859 65.4395 11.9297C66.0501 11.2734 66.7428 10.7767 67.5176 10.4395C68.2923 10.1022 69.0944 9.93359 69.9238 9.93359C70.9811 9.93359 71.8926 10.1159 72.6582 10.4805C73.4329 10.8451 74.0664 11.3555 74.5586 12.0117C75.0508 12.6589 75.4154 13.4245 75.6523 14.3086C75.8893 15.1836 76.0078 16.1406 76.0078 17.1797V18.3145H64.9609V16.25H73.4785V16.0586C73.4421 15.4023 73.3053 14.7643 73.0684 14.1445C72.8405 13.5247 72.4759 13.0143 71.9746 12.6133C71.4733 12.2122 70.7897 12.0117 69.9238 12.0117C69.3496 12.0117 68.821 12.1348 68.3379 12.3809C67.8548 12.6178 67.4401 12.9733 67.0938 13.4473C66.7474 13.9212 66.4785 14.5 66.2871 15.1836C66.0957 15.8672 66 16.6556 66 17.5488V18.123C66 18.8249 66.0957 19.4857 66.2871 20.1055C66.4876 20.7161 66.7747 21.2539 67.1484 21.7188C67.5312 22.1836 67.9915 22.5482 68.5293 22.8125C69.0762 23.0768 69.696 23.209 70.3887 23.209C71.2819 23.209 72.0384 23.0267 72.6582 22.6621C73.278 22.2975 73.8203 21.8099 74.2852 21.1992L75.8164 22.416C75.4974 22.8991 75.0918 23.3594 74.5996 23.7969C74.1074 24.2344 73.5013 24.5898 72.7812 24.8633C72.0703 25.1367 71.2272 25.2734 70.252 25.2734Z" fill="white"/>
<path d="M51.2207 4V25H48.6914V4H51.2207ZM50.6191 17.043L49.5664 17.002C49.5755 15.9902 49.7259 15.056 50.0176 14.1992C50.3092 13.3333 50.7194 12.5814 51.248 11.9434C51.7767 11.3053 52.4056 10.8132 53.1348 10.4668C53.873 10.1113 54.6888 9.93359 55.582 9.93359C56.3112 9.93359 56.9674 10.0339 57.5508 10.2344C58.1341 10.4258 58.6309 10.7357 59.041 11.1641C59.4603 11.5924 59.7793 12.1484 59.998 12.832C60.2168 13.5065 60.3262 14.3314 60.3262 15.3066V25H57.7832V15.2793C57.7832 14.5046 57.6693 13.8848 57.4414 13.4199C57.2135 12.946 56.8809 12.6042 56.4434 12.3945C56.0059 12.1758 55.4681 12.0664 54.8301 12.0664C54.2012 12.0664 53.627 12.1986 53.1074 12.4629C52.597 12.7272 52.1549 13.0918 51.7812 13.5566C51.4167 14.0215 51.1296 14.5547 50.9199 15.1562C50.7194 15.7487 50.6191 16.3776 50.6191 17.043Z" fill="white"/>
<path d="M45.7246 10.207V12.1484H37.7266V10.207H45.7246ZM40.4336 6.61133H42.9629V21.3359C42.9629 21.8372 43.0404 22.2155 43.1953 22.4707C43.3503 22.7259 43.5508 22.8945 43.7969 22.9766C44.043 23.0586 44.3073 23.0996 44.5898 23.0996C44.7995 23.0996 45.0182 23.0814 45.2461 23.0449C45.4831 22.9993 45.6608 22.9629 45.7793 22.9355L45.793 25C45.5924 25.0638 45.3281 25.123 45 25.1777C44.681 25.2415 44.2936 25.2734 43.8379 25.2734C43.2181 25.2734 42.6484 25.1504 42.1289 24.9043C41.6094 24.6582 41.1947 24.248 40.8848 23.6738C40.584 23.0905 40.4336 22.3066 40.4336 21.3223V6.61133Z" fill="white"/>
<path d="M36.6465 22.8535V25H26.1055V22.8535H36.6465ZM26.6387 5.09375V25H24V5.09375H26.6387ZM35.252 13.6523V15.7988H26.1055V13.6523H35.252ZM36.5098 5.09375V7.25391H26.1055V5.09375H36.5098Z" fill="white"/>
<path d="M166.35 25.1818V15H167.583V19.5341H173.012V15H174.244V25.1818H173.012V20.6278H167.583V25.1818H166.35Z" fill="#B9B9B9"/>
<path d="M156.81 16.0938V15H164.447V16.0938H161.245V25.1818H160.012V16.0938H156.81Z" fill="#B9B9B9"/>
<path d="M149 25.1818V15H155.145V16.0938H150.233V19.5341H154.827V20.6278H150.233V24.0881H155.224V25.1818H149Z" fill="#B9B9B9"/>
</svg>
