<svg width="606" height="128" viewBox="0 0 606 128" fill="none" xmlns="http://www.w3.org/2000/svg">
<path d="M578.143 95.5786C570.916 95.5786 565.599 93.7926 562.193 90.2204C558.787 86.5652 557.084 81.7885 557.084 75.8904V45.7349H538.517V31.4048H557.084V11.7166H575.152V31.4048H601.819V45.7349H575.152V73.6474C575.152 78.7148 577.645 81.2486 582.629 81.2486H605.308V95.5786H578.143Z" fill="white"/>
<path d="M511.987 95.5789V31.4051H530.055V95.5789H511.987ZM511.862 20.8133V6.73242H530.18V20.8133H511.862Z" fill="white"/>
<path d="M422.26 95.5786V6.48291H440.329V95.5786H422.26ZM425.375 95.5786V81.2485H468.366C473.765 81.2485 477.878 79.7947 480.702 76.8872C483.61 73.8966 485.063 69.4522 485.063 63.554C485.063 57.5727 483.61 53.1283 480.702 50.2208C477.878 47.2302 473.765 45.7349 468.366 45.7349H426.622V31.4048H468.366C479.497 31.4048 488.179 34.1462 494.409 39.629C500.64 45.1118 503.755 53.0868 503.755 63.554C503.755 73.9381 500.64 81.8716 494.409 87.3544C488.179 92.8372 479.497 95.5786 468.366 95.5786H425.375Z" fill="white"/>
<path d="M325.508 95.5787L349.682 63.5541L325.508 31.5295H346.691L365.258 56.3268H374.354L393.046 31.5295H414.105L390.055 63.5541L414.105 95.5787H393.046L374.23 70.6569H365.258L346.691 95.5787H325.508Z" fill="white"/>
<path d="M267.946 96.2016C256.815 96.2016 248.134 93.4602 241.903 87.9774C235.673 82.4115 232.557 74.2704 232.557 63.554C232.557 52.7545 235.673 44.6134 241.903 39.1306C248.134 33.5647 256.815 30.7817 267.946 30.7817H299.099C306.409 30.7817 311.975 32.5263 315.796 36.0153C319.701 39.4213 321.653 44.3226 321.653 50.7192C321.653 63.7617 314.135 70.2829 299.099 70.2829H251.996C253.741 78.0087 259.058 81.8716 267.946 81.8716H318.413V96.2016H267.946ZM267.946 45.1118C259.39 45.1118 254.115 48.7255 252.121 55.9528H298.226C299.888 55.9528 301.176 55.4544 302.089 54.4575C303.086 53.4606 303.585 52.0899 303.585 50.3454C303.585 46.8563 301.799 45.1118 298.226 45.1118H267.946Z" fill="white"/>
<path d="M148 96.0127V31.8389H203.95C211.26 31.8389 216.577 33.6665 219.9 37.3217C223.306 40.8938 225.009 45.629 225.009 51.5271V96.0127H206.94V53.6455C206.94 48.6611 204.448 46.1689 199.464 46.1689H166.068V96.0127H148Z" fill="white"/>
<path d="M0 96H32V128H0V96Z" fill="#8DFB4E"/>
<path d="M64 96H96V128H64V96Z" fill="#8DFB4E"/>
<path d="M96 64H128V96H96V64Z" fill="#8DFB4E"/>
<path d="M32 64H64V96H32V64Z" fill="#8DFB4E"/>
<path d="M96 0H128V32H96V0Z" fill="#8DFB4E"/>
<path d="M64 32H96V64H64V32Z" fill="#8DFB4E"/>
<path d="M32 0H64V32H32V0Z" fill="#8DFB4E"/>
<path d="M0 32H32V64H0V32Z" fill="#8DFB4E"/>
<path d="M32.1023 64.1023L64 96L32 128L0.102286 96.1023L32.1023 64.1023Z" fill="#8DFB4E"/>
<path d="M96 64L127.898 95.8977L95.8977 127.898L64 96L96 64Z" fill="#8DFB4E"/>
<path d="M96 0L127.898 31.8977L95.8977 63.8977L64 32L96 0Z" fill="#8DFB4E"/>
<path d="M32 0L63.8977 31.8977L31.8977 63.8977L0 32L32 0Z" fill="#8DFB4E"/>
</svg>
