<svg width="161" height="28" viewBox="0 0 161 28" fill="none" xmlns="http://www.w3.org/2000/svg">
<g clip-path="url(#clip0_2174_23)">
<path d="M5.80312 21.3706C6.01871 21.1551 6.31515 21.0293 6.62955 21.0293H35.1416C35.6626 21.0293 35.9231 21.6581 35.5548 22.0264L29.9225 27.6587C29.7069 27.8743 29.4104 28.0001 29.096 28.0001H0.583997C0.0629828 28.0001 -0.197524 27.3713 0.170779 27.003L5.80312 21.3706Z" fill="url(#paint0_linear_2174_23)"/>
<path d="M5.80312 0.341354C6.02769 0.125762 6.32413 0 6.62955 0H35.1416C35.6626 0 35.9231 0.62881 35.5548 0.997113L29.9225 6.62945C29.7069 6.84504 29.4104 6.9708 29.096 6.9708H0.583997C0.0629828 6.9708 -0.197524 6.34199 0.170779 5.97369L5.80312 0.341354Z" fill="url(#paint1_linear_2174_23)"/>
<path d="M29.9225 10.7886C29.7069 10.573 29.4104 10.4473 29.096 10.4473H0.583997C0.0629828 10.4473 -0.197524 11.0761 0.170779 11.4444L5.80312 17.0767C6.01871 17.2923 6.31515 17.4181 6.62955 17.4181H35.1416C35.6626 17.4181 35.9231 16.7893 35.5548 16.421L29.9225 10.7886Z" fill="url(#paint2_linear_2174_23)"/>
</g>
<path d="M122.319 21.8042V14.189C122.319 13.6056 122.2 13.0998 121.963 12.6714C121.736 12.2339 121.389 11.8966 120.924 11.6597C120.459 11.4227 119.885 11.3042 119.202 11.3042C118.564 11.3042 118.003 11.4136 117.52 11.6323C117.046 11.8511 116.672 12.1382 116.399 12.4937C116.135 12.8491 116.002 13.2319 116.002 13.6421H113.473C113.473 13.1134 113.61 12.5894 113.883 12.0698C114.157 11.5503 114.549 11.0809 115.059 10.6616C115.579 10.2332 116.198 9.896 116.918 9.6499C117.648 9.39469 118.459 9.26709 119.352 9.26709C120.428 9.26709 121.375 9.44938 122.196 9.81396C123.025 10.1785 123.672 10.73 124.137 11.4683C124.611 12.1974 124.848 13.1134 124.848 14.2163V21.1069C124.848 21.5991 124.889 22.1232 124.971 22.6792C125.062 23.2352 125.194 23.7137 125.368 24.1147V24.3335H122.729C122.601 24.0418 122.501 23.6545 122.428 23.1714C122.355 22.6792 122.319 22.2235 122.319 21.8042ZM122.756 15.3647L122.784 17.1421H120.227C119.507 17.1421 118.864 17.2013 118.299 17.3198C117.734 17.4292 117.26 17.5978 116.877 17.8257C116.495 18.0535 116.203 18.3407 116.002 18.687C115.802 19.0243 115.702 19.4207 115.702 19.8765C115.702 20.3413 115.806 20.7651 116.016 21.1479C116.226 21.5308 116.54 21.8361 116.959 22.064C117.388 22.2827 117.912 22.3921 118.532 22.3921C119.306 22.3921 119.99 22.228 120.583 21.8999C121.175 21.5718 121.644 21.1707 121.991 20.6968C122.346 20.2228 122.538 19.7625 122.565 19.3159L123.645 20.5327C123.581 20.9155 123.408 21.3394 123.125 21.8042C122.843 22.269 122.465 22.7157 121.991 23.144C121.526 23.5633 120.97 23.9142 120.323 24.1968C119.685 24.4702 118.965 24.6069 118.163 24.6069C117.16 24.6069 116.28 24.411 115.524 24.019C114.777 23.6271 114.193 23.103 113.774 22.4468C113.364 21.7814 113.159 21.0386 113.159 20.2183C113.159 19.4253 113.314 18.728 113.624 18.1265C113.933 17.5158 114.38 17.0099 114.963 16.6089C115.547 16.1987 116.249 15.8888 117.069 15.6792C117.889 15.4696 118.805 15.3647 119.817 15.3647H122.756Z" fill="white"/>
<path d="M100.649 12.6987V24.3335H98.1196V9.54053H100.512L100.649 12.6987ZM100.047 16.3765L98.9946 16.3354C99.0037 15.3237 99.1541 14.3895 99.4458 13.5327C99.7375 12.6668 100.148 11.9149 100.676 11.2769C101.205 10.6388 101.834 10.1466 102.563 9.80029C103.301 9.44482 104.117 9.26709 105.01 9.26709C105.739 9.26709 106.396 9.36735 106.979 9.56787C107.562 9.75928 108.059 10.0692 108.469 10.4976C108.889 10.9259 109.208 11.4819 109.426 12.1655C109.645 12.84 109.754 13.6649 109.754 14.6401V24.3335H107.211V14.6128C107.211 13.8381 107.097 13.2183 106.87 12.7534C106.642 12.2795 106.309 11.9377 105.872 11.728C105.434 11.5093 104.896 11.3999 104.258 11.3999C103.629 11.3999 103.055 11.5321 102.536 11.7964C102.025 12.0607 101.583 12.4253 101.209 12.8901C100.845 13.355 100.558 13.8882 100.348 14.4897C100.148 15.0822 100.047 15.7111 100.047 16.3765Z" fill="white"/>
<path d="M91.6118 21.8042V14.189C91.6118 13.6056 91.4933 13.0998 91.2563 12.6714C91.0285 12.2339 90.6821 11.8966 90.2173 11.6597C89.7524 11.4227 89.1782 11.3042 88.4946 11.3042C87.8566 11.3042 87.2961 11.4136 86.813 11.6323C86.339 11.8511 85.9653 12.1382 85.6919 12.4937C85.4276 12.8491 85.2954 13.2319 85.2954 13.6421H82.7661C82.7661 13.1134 82.9028 12.5894 83.1763 12.0698C83.4497 11.5503 83.8416 11.0809 84.3521 10.6616C84.8716 10.2332 85.4914 9.896 86.2114 9.6499C86.9406 9.39469 87.7518 9.26709 88.645 9.26709C89.7205 9.26709 90.6685 9.44938 91.4888 9.81396C92.3182 10.1785 92.9653 10.73 93.4302 11.4683C93.9041 12.1974 94.1411 13.1134 94.1411 14.2163V21.1069C94.1411 21.5991 94.1821 22.1232 94.2642 22.6792C94.3553 23.2352 94.4875 23.7137 94.6606 24.1147V24.3335H92.022C91.8944 24.0418 91.7941 23.6545 91.7212 23.1714C91.6483 22.6792 91.6118 22.2235 91.6118 21.8042ZM92.0493 15.3647L92.0767 17.1421H89.52C88.8 17.1421 88.1574 17.2013 87.5923 17.3198C87.0272 17.4292 86.5532 17.5978 86.1704 17.8257C85.7876 18.0535 85.4959 18.3407 85.2954 18.687C85.0949 19.0243 84.9946 19.4207 84.9946 19.8765C84.9946 20.3413 85.0994 20.7651 85.3091 21.1479C85.5187 21.5308 85.8332 21.8361 86.2524 22.064C86.6808 22.2827 87.2049 22.3921 87.8247 22.3921C88.5994 22.3921 89.283 22.228 89.8755 21.8999C90.4679 21.5718 90.9373 21.1707 91.2837 20.6968C91.6392 20.2228 91.8306 19.7625 91.8579 19.3159L92.938 20.5327C92.8742 20.9155 92.701 21.3394 92.4185 21.8042C92.1359 22.269 91.7576 22.7157 91.2837 23.144C90.8188 23.5633 90.2629 23.9142 89.6157 24.1968C88.9777 24.4702 88.2576 24.6069 87.4556 24.6069C86.453 24.6069 85.5734 24.411 84.8169 24.019C84.0695 23.6271 83.4862 23.103 83.0669 22.4468C82.6567 21.7814 82.4517 21.0386 82.4517 20.2183C82.4517 19.4253 82.6066 18.728 82.9165 18.1265C83.2264 17.5158 83.673 17.0099 84.2563 16.6089C84.8397 16.1987 85.5415 15.8888 86.3618 15.6792C87.1821 15.4696 88.0981 15.3647 89.1099 15.3647H92.0493Z" fill="white"/>
<path d="M78.8286 3.3335V24.3335H76.2856V3.3335H78.8286Z" fill="white"/>
<path d="M59.4419 17.1011V16.7866C59.4419 15.7202 59.5968 14.7313 59.9067 13.8198C60.2166 12.8993 60.6632 12.1017 61.2466 11.4272C61.8299 10.7437 62.5363 10.215 63.3657 9.84131C64.1951 9.4585 65.1248 9.26709 66.1548 9.26709C67.1938 9.26709 68.1281 9.4585 68.9575 9.84131C69.7961 10.215 70.507 10.7437 71.0903 11.4272C71.6828 12.1017 72.134 12.8993 72.4438 13.8198C72.7537 14.7313 72.9087 15.7202 72.9087 16.7866V17.1011C72.9087 18.1675 72.7537 19.1564 72.4438 20.0679C72.134 20.9793 71.6828 21.7769 71.0903 22.4604C70.507 23.1349 69.8006 23.6636 68.9712 24.0464C68.1509 24.4201 67.2212 24.6069 66.1821 24.6069C65.1431 24.6069 64.2088 24.4201 63.3794 24.0464C62.55 23.6636 61.839 23.1349 61.2466 22.4604C60.6632 21.7769 60.2166 20.9793 59.9067 20.0679C59.5968 19.1564 59.4419 18.1675 59.4419 17.1011ZM61.9712 16.7866V17.1011C61.9712 17.8394 62.0578 18.5366 62.231 19.1929C62.4041 19.84 62.6639 20.4142 63.0103 20.9155C63.3657 21.4168 63.8078 21.8133 64.3364 22.105C64.8651 22.3875 65.4803 22.5288 66.1821 22.5288C66.8748 22.5288 67.481 22.3875 68.0005 22.105C68.5291 21.8133 68.9666 21.4168 69.313 20.9155C69.6593 20.4142 69.9191 19.84 70.0923 19.1929C70.2746 18.5366 70.3657 17.8394 70.3657 17.1011V16.7866C70.3657 16.0575 70.2746 15.3693 70.0923 14.7222C69.9191 14.0659 69.6548 13.4871 69.2993 12.9858C68.953 12.4754 68.5155 12.0744 67.9868 11.7827C67.4673 11.491 66.8566 11.3452 66.1548 11.3452C65.4621 11.3452 64.8514 11.491 64.3228 11.7827C63.8032 12.0744 63.3657 12.4754 63.0103 12.9858C62.6639 13.4871 62.4041 14.0659 62.231 14.7222C62.0578 15.3693 61.9712 16.0575 61.9712 16.7866Z" fill="white"/>
<path d="M54.479 19.3022C54.479 18.8374 54.4061 18.4272 54.2603 18.0718C54.1235 17.7072 53.8774 17.3791 53.522 17.0874C53.1756 16.7957 52.6925 16.5177 52.0728 16.2534C51.4621 15.9891 50.6873 15.7202 49.7485 15.4468C48.7642 15.1551 47.8755 14.8315 47.0825 14.4761C46.2896 14.1115 45.6105 13.6968 45.0454 13.2319C44.4803 12.7671 44.0474 12.2339 43.7466 11.6323C43.4458 11.0308 43.2954 10.3426 43.2954 9.56787C43.2954 8.79313 43.4549 8.07764 43.7739 7.42139C44.0929 6.76514 44.5487 6.19548 45.1411 5.7124C45.7427 5.22021 46.4582 4.8374 47.2876 4.56396C48.117 4.29053 49.0422 4.15381 50.063 4.15381C51.5578 4.15381 52.8247 4.44092 53.8638 5.01514C54.9119 5.58024 55.7095 6.32308 56.2563 7.24365C56.8032 8.15511 57.0767 9.13037 57.0767 10.1694H54.4517C54.4517 9.42204 54.2922 8.76123 53.9731 8.18701C53.6541 7.60368 53.1711 7.14795 52.5239 6.81982C51.8768 6.48258 51.0565 6.31396 50.063 6.31396C49.1242 6.31396 48.3494 6.45524 47.7388 6.73779C47.1281 7.02035 46.6724 7.40316 46.3716 7.88623C46.0799 8.3693 45.9341 8.92074 45.9341 9.54053C45.9341 9.9598 46.0207 10.3426 46.1938 10.689C46.3761 11.0262 46.6541 11.3407 47.0278 11.6323C47.4106 11.924 47.8937 12.1929 48.4771 12.439C49.0695 12.6851 49.7759 12.922 50.5962 13.1499C51.7264 13.4689 52.7017 13.8244 53.522 14.2163C54.3423 14.6082 55.0168 15.0503 55.5454 15.5425C56.0832 16.0256 56.4797 16.577 56.7349 17.1968C56.9992 17.8075 57.1313 18.5002 57.1313 19.2749C57.1313 20.0861 56.9673 20.8198 56.6392 21.4761C56.311 22.1323 55.8416 22.6929 55.231 23.1577C54.6203 23.6226 53.8866 23.9826 53.0298 24.2378C52.1821 24.4839 51.2342 24.6069 50.186 24.6069C49.2655 24.6069 48.3586 24.4793 47.4653 24.2241C46.5812 23.9689 45.7746 23.5861 45.0454 23.0757C44.3254 22.5653 43.7466 21.9364 43.3091 21.189C42.8807 20.4325 42.6665 19.5575 42.6665 18.564H45.2915C45.2915 19.2476 45.4237 19.8354 45.688 20.3276C45.9523 20.8107 46.3123 21.2118 46.7681 21.5308C47.2329 21.8498 47.757 22.0868 48.3403 22.2417C48.9328 22.3875 49.548 22.4604 50.186 22.4604C51.1066 22.4604 51.8859 22.3328 52.5239 22.0776C53.1619 21.8224 53.645 21.4578 53.9731 20.9839C54.3104 20.5099 54.479 19.9494 54.479 19.3022Z" fill="white"/>
<path d="M155.029 24.321V14.1392H156.262V23.2272H160.995V24.321H155.029Z" fill="#B9B9B9"/>
<path d="M152.956 19.2301C152.956 20.304 152.762 21.232 152.374 22.0142C151.987 22.7964 151.455 23.3996 150.779 23.8239C150.102 24.2481 149.33 24.4602 148.462 24.4602C147.593 24.4602 146.821 24.2481 146.145 23.8239C145.469 23.3996 144.937 22.7964 144.549 22.0142C144.161 21.232 143.968 20.304 143.968 19.2301C143.968 18.1563 144.161 17.2282 144.549 16.446C144.937 15.6638 145.469 15.0606 146.145 14.6364C146.821 14.2121 147.593 14 148.462 14C149.33 14 150.102 14.2121 150.779 14.6364C151.455 15.0606 151.987 15.6638 152.374 16.446C152.762 17.2282 152.956 18.1563 152.956 19.2301ZM151.763 19.2301C151.763 18.3485 151.615 17.6044 151.321 16.9979C151.029 16.3913 150.633 15.9323 150.132 15.6207C149.635 15.3092 149.078 15.1534 148.462 15.1534C147.845 15.1534 147.287 15.3092 146.786 15.6207C146.289 15.9323 145.893 16.3913 145.598 16.9979C145.307 17.6044 145.161 18.3485 145.161 19.2301C145.161 20.1117 145.307 20.8558 145.598 21.4624C145.893 22.0689 146.289 22.5279 146.786 22.8395C147.287 23.151 147.845 23.3068 148.462 23.3068C149.078 23.3068 149.635 23.151 150.132 22.8395C150.633 22.5279 151.029 22.0689 151.321 21.4624C151.615 20.8558 151.763 20.1117 151.763 19.2301Z" fill="#B9B9B9"/>
<path d="M141.006 16.6847C140.946 16.1809 140.704 15.7898 140.28 15.5114C139.856 15.233 139.335 15.0938 138.719 15.0938C138.268 15.0938 137.874 15.1667 137.536 15.3125C137.201 15.4583 136.939 15.6589 136.75 15.9141C136.564 16.1693 136.472 16.4593 136.472 16.7841C136.472 17.0559 136.536 17.2895 136.665 17.4851C136.798 17.6773 136.967 17.8381 137.173 17.9673C137.378 18.0933 137.594 18.1977 137.819 18.2805C138.044 18.3601 138.251 18.4247 138.44 18.4744L139.474 18.7528C139.74 18.8224 140.035 18.9186 140.359 19.0412C140.688 19.1638 141.001 19.3312 141.299 19.5433C141.601 19.7521 141.849 20.0206 142.045 20.3487C142.24 20.6768 142.338 21.0795 142.338 21.5568C142.338 22.107 142.194 22.6042 141.906 23.0483C141.621 23.4924 141.203 23.8454 140.653 24.1072C140.106 24.3691 139.441 24.5 138.659 24.5C137.93 24.5 137.299 24.3823 136.765 24.147C136.235 23.9117 135.817 23.5836 135.512 23.1626C135.21 22.7417 135.04 22.2528 135 21.696H136.273C136.306 22.0805 136.435 22.3987 136.661 22.6506C136.889 22.8991 137.178 23.0848 137.526 23.2074C137.877 23.3267 138.255 23.3864 138.659 23.3864C139.13 23.3864 139.552 23.3101 139.927 23.1577C140.301 23.0019 140.598 22.7865 140.817 22.5114C141.036 22.233 141.145 21.9081 141.145 21.5369C141.145 21.1989 141.05 20.9238 140.862 20.7116C140.673 20.4995 140.424 20.3272 140.116 20.1946C139.808 20.062 139.474 19.946 139.116 19.8466L137.864 19.4886C137.068 19.2599 136.438 18.9335 135.974 18.5092C135.51 18.085 135.278 17.5298 135.278 16.8438C135.278 16.2737 135.433 15.7765 135.741 15.3523C136.052 14.9247 136.47 14.5933 136.994 14.358C137.521 14.1193 138.109 14 138.759 14C139.415 14 139.998 14.1177 140.509 14.353C141.019 14.585 141.423 14.9032 141.722 15.3075C142.023 15.7119 142.182 16.1709 142.199 16.6847H141.006Z" fill="#B9B9B9"/>
<defs>
<linearGradient id="paint0_linear_2174_23" x1="32.4179" y1="-3.3645" x2="12.6853" y2="34.4314" gradientUnits="userSpaceOnUse">
<stop stop-color="#00FFA3"/>
<stop offset="1" stop-color="#DC1FFF"/>
</linearGradient>
<linearGradient id="paint1_linear_2174_23" x1="23.7897" y1="-7.86923" x2="4.05709" y2="29.9266" gradientUnits="userSpaceOnUse">
<stop stop-color="#00FFA3"/>
<stop offset="1" stop-color="#DC1FFF"/>
</linearGradient>
<linearGradient id="paint2_linear_2174_23" x1="28.0763" y1="-5.63122" x2="8.34371" y2="32.1646" gradientUnits="userSpaceOnUse">
<stop stop-color="#00FFA3"/>
<stop offset="1" stop-color="#DC1FFF"/>
</linearGradient>
<clipPath id="clip0_2174_23">
<rect width="35.7254" height="28" fill="white"/>
</clipPath>
</defs>
</svg>
